<?xml version="1.0" encoding="UTF-8" standalone="no"?>
<!DOCTYPE svg PUBLIC "-//W3C//DTD SVG 1.1//EN" "http://www.w3.org/Graphics/SVG/1.1/DTD/svg11.dtd">
<svg width="100%" height="100%" viewBox="0 0 486 499" version="1.1" xmlns="http://www.w3.org/2000/svg" xmlns:xlink="http://www.w3.org/1999/xlink" xml:space="preserve" xmlns:serif="http://www.serif.com/" style="fill-rule:evenodd;clip-rule:evenodd;stroke-linejoin:round;stroke-miterlimit:2;">
    <g transform="matrix(1,0,0,1,-2852.41,-13.4428)">
        <g transform="matrix(1,0,0,1,2276.96,6.72142)">
            <g id="Group" transform="matrix(1,0,0,1,562,-6.72142)">
                <g transform="matrix(0.195083,-6.57452e-18,6.57452e-18,0.195083,197.942,206.075)">
                    <circle cx="297.608" cy="255.914" r="107.047" style="fill:rgb(233,30,99);"/>
                </g>
                <g transform="matrix(0.687714,0,0,-0.687714,51.331,325.432)">
                    <path d="M297.608,148.867C356.689,148.867 404.655,196.833 404.655,255.914C404.655,314.995 311.16,453.662 297.608,453.662C284.055,453.662 190.561,314.995 190.561,255.914C190.561,196.833 238.527,148.867 297.608,148.867Z" style="fill:rgb(179,229,252);"/>
                </g>
                <g transform="matrix(0.282065,-0.282065,0.282065,0.282065,-44.7646,137.309)">
                    <path d="M297.608,148.867C356.689,148.867 404.655,196.833 404.655,255.914C404.655,314.995 311.16,453.662 297.608,453.662C284.055,453.662 190.561,314.995 190.561,255.914C190.561,196.833 238.527,148.867 297.608,148.867Z" style="fill:rgb(0,87,155);"/>
                </g>
                <g transform="matrix(0.19945,0.345458,-0.345458,0.19945,435.694,-16.2562)">
                    <path d="M297.608,148.867C356.689,148.867 404.655,196.833 404.655,255.914C404.655,314.995 311.16,453.662 297.608,453.662C284.055,453.662 190.561,314.995 190.561,255.914C190.561,196.833 238.527,148.867 297.608,148.867Z" style="fill:rgb(248,187,208);"/>
                </g>
                <g transform="matrix(0.19945,0.345458,0.345458,-0.19945,-48.758,337.035)">
                    <path d="M297.608,148.867C356.689,148.867 404.655,196.833 404.655,255.914C404.655,314.995 311.16,453.662 297.608,453.662C284.055,453.662 190.561,314.995 190.561,255.914C190.561,196.833 238.527,148.867 297.608,148.867Z" style="fill:rgb(233,30,99);"/>
                </g>
                <g transform="matrix(0.19945,-0.345458,-0.345458,-0.19945,435.694,542.657)">
                    <path d="M297.608,148.867C356.689,148.867 404.655,196.833 404.655,255.914C404.655,314.995 311.16,453.662 297.608,453.662C284.055,453.662 190.561,314.995 190.561,255.914C190.561,196.833 238.527,148.867 297.608,148.867Z" style="fill:rgb(3,172,242);"/>
                </g>
                <g transform="matrix(-0.687714,8.42206e-17,8.42206e-17,0.687714,460.669,200.011)">
                    <path d="M297.608,148.867C356.689,148.867 404.655,196.833 404.655,255.914C404.655,314.995 311.16,453.662 297.608,453.662C284.055,453.662 190.561,314.995 190.561,255.914C190.561,196.833 238.527,148.867 297.608,148.867Z" style="fill:rgb(0,87,155);"/>
                </g>
                <g transform="matrix(5.25962e-17,-0.687714,-0.687714,-5.25962e-17,325.432,467.87)">
                    <path d="M297.608,148.867C356.689,148.867 404.655,196.833 404.655,255.914C404.655,314.995 311.16,453.662 297.608,453.662C284.055,453.662 190.561,314.995 190.561,255.914C190.561,196.833 238.527,148.867 297.608,148.867Z" style="fill:rgb(76,175,80);"/>
                </g>
                <g transform="matrix(-5.25962e-17,-0.687714,0.687714,-5.25962e-17,186.568,467.87)">
                    <path d="M297.608,148.867C356.689,148.867 404.655,196.833 404.655,255.914C404.655,286.673 379.314,339.002 353.106,382.105C328.973,421.795 304.105,453.662 297.608,453.662C284.055,453.662 190.561,314.995 190.561,255.914C190.561,196.833 238.527,148.867 297.608,148.867Z" style="fill:rgb(200,230,201);"/>
                </g>
            </g>
        </g>
    </g>
</svg>
